<svg width="147" height="50" viewBox="0 0 147 50" fill="none" xmlns="http://www.w3.org/2000/svg">
<path d="M53.6591 34.5931H47.5393L46.2589 38.2715H43.4052L49.3731 22.4729H51.8362L57.8149 38.2715H54.9504L53.6591 34.5931ZM48.3097 32.3796H52.8887L50.5992 25.8257L48.3097 32.3796Z" fill="#7B7B7B"/>
<path d="M68.6769 32.5206C68.6769 34.3363 68.2646 35.7867 67.4399 36.8717C66.6153 37.9496 65.5085 38.4885 64.1196 38.4885C62.832 38.4885 61.8012 38.0653 61.0272 37.219V42.7854H58.3905V26.531H60.821L60.9295 27.7246C61.7035 26.7842 62.7561 26.314 64.0871 26.314C65.5194 26.314 66.6406 26.8493 67.4508 27.9199C68.2682 28.9833 68.6769 30.4626 68.6769 32.3579V32.5206ZM66.051 32.2928C66.051 31.1209 65.8159 30.1913 65.3458 29.5041C64.8828 28.8169 64.2173 28.4733 63.3492 28.4733C62.2714 28.4733 61.4974 28.9182 61.0272 29.8079V35.0163C61.5046 35.9277 62.2859 36.3835 63.3709 36.3835C64.21 36.3835 64.8647 36.0471 65.3349 35.3743C65.8123 34.6944 66.051 33.6672 66.051 32.2928Z" fill="#7B7B7B"/>
<path d="M80.7542 32.5206C80.7542 34.3363 80.3418 35.7867 79.5172 36.8717C78.6925 37.9496 77.5858 38.4885 76.1969 38.4885C74.9093 38.4885 73.8785 38.0653 73.1044 37.219V42.7854H70.4677V26.531H72.8983L73.0068 27.7246C73.7808 26.7842 74.8333 26.314 76.1643 26.314C77.5966 26.314 78.7179 26.8493 79.528 27.9199C80.3455 28.9833 80.7542 30.4626 80.7542 32.3579V32.5206ZM78.1283 32.2928C78.1283 31.1209 77.8932 30.1913 77.423 29.5041C76.96 28.8169 76.2945 28.4733 75.4265 28.4733C74.3486 28.4733 73.5746 28.9182 73.1044 29.8079V35.0163C73.5819 35.9277 74.3631 36.3835 75.4482 36.3835C76.2873 36.3835 76.942 36.0471 77.4122 35.3743C77.8896 34.6944 78.1283 33.6672 78.1283 32.2928Z" fill="#7B7B7B"/>
<path d="M96.1522 34.2025C96.1522 33.508 95.9062 32.9727 95.4143 32.5966C94.9297 32.2204 94.0508 31.8406 92.7776 31.4572C91.5045 31.0739 90.4917 30.6471 89.7394 30.1769C88.2999 29.2726 87.5801 28.0935 87.5801 26.6395C87.5801 25.3664 88.0973 24.3175 89.1318 23.4928C90.1734 22.6682 91.5225 22.2559 93.1791 22.2559C94.2786 22.2559 95.2588 22.4584 96.1196 22.8635C96.9804 23.2686 97.6568 23.8473 98.1487 24.5996C98.6406 25.3447 98.8866 26.173 98.8866 27.0844H96.1522C96.1522 26.2598 95.8918 25.616 95.3709 25.153C94.8573 24.6828 94.1195 24.4477 93.1574 24.4477C92.2604 24.4477 91.5623 24.6394 91.0632 25.0228C90.5713 25.4062 90.3254 25.9415 90.3254 26.6287C90.3254 27.2074 90.593 27.6921 91.1283 28.0827C91.6636 28.4661 92.5461 28.8422 93.7759 29.2112C95.0056 29.5728 95.993 29.9888 96.7381 30.459C97.4832 30.9219 98.0294 31.4572 98.3766 32.0649C98.7238 32.6653 98.8974 33.3706 98.8974 34.1808C98.8974 35.4973 98.391 36.5462 97.3783 37.3275C96.3728 38.1015 95.0056 38.4885 93.2767 38.4885C92.1338 38.4885 91.0813 38.2787 90.1192 37.8592C89.1643 37.4324 88.4193 36.8464 87.8839 36.1013C87.3559 35.3563 87.0919 34.4882 87.0919 33.4972H89.8371C89.8371 34.3942 90.1337 35.0886 90.7268 35.5805C91.32 36.0724 92.17 36.3184 93.2767 36.3184C94.2316 36.3184 94.9478 36.1267 95.4252 35.7433C95.9098 35.3526 96.1522 34.839 96.1522 34.2025Z" fill="#7B7B7B"/>
<path d="M103.911 23.6773V26.531H105.983V28.4842H103.911V35.038C103.911 35.4865 103.998 35.812 104.171 36.0145C104.352 36.2099 104.67 36.3075 105.126 36.3075C105.43 36.3075 105.737 36.2713 106.048 36.199V38.2389C105.448 38.4053 104.869 38.4885 104.312 38.4885C102.287 38.4885 101.274 37.3709 101.274 35.1356V28.4842H99.3427V26.531H101.274V23.6773H103.911Z" fill="#7B7B7B"/>
<path d="M106.743 32.2928C106.743 31.1426 106.971 30.1081 107.427 29.1895C107.883 28.2635 108.523 27.5546 109.347 27.0627C110.172 26.5636 111.12 26.314 112.19 26.314C113.775 26.314 115.059 26.824 116.042 27.844C117.033 28.8639 117.569 30.2167 117.648 31.9021L117.659 32.5206C117.659 33.678 117.435 34.7125 116.986 35.6239C116.545 36.5354 115.909 37.2407 115.077 37.7398C114.252 38.2389 113.297 38.4885 112.212 38.4885C110.556 38.4885 109.228 37.9387 108.23 36.8392C107.239 35.7324 106.743 34.2603 106.743 32.423V32.2928ZM109.38 32.5206C109.38 33.7287 109.63 34.6763 110.129 35.3635C110.628 36.0435 111.322 36.3835 112.212 36.3835C113.102 36.3835 113.793 36.0362 114.285 35.3418C114.784 34.6474 115.033 33.631 115.033 32.2928C115.033 31.1064 114.776 30.166 114.263 29.4716C113.756 28.7771 113.066 28.4299 112.19 28.4299C111.33 28.4299 110.646 28.7735 110.14 29.4607C109.633 30.1407 109.38 31.1607 109.38 32.5206Z" fill="#7B7B7B"/>
<path d="M125.591 28.9399C125.244 28.882 124.886 28.8531 124.517 28.8531C123.309 28.8531 122.495 29.316 122.076 30.242V38.2715H119.439V26.531H121.956L122.022 27.844C122.658 26.824 123.541 26.314 124.669 26.314C125.045 26.314 125.356 26.3647 125.602 26.4659L125.591 28.9399Z" fill="#7B7B7B"/>
<path d="M131.766 38.4885C130.095 38.4885 128.739 37.964 127.697 36.9151C126.662 35.859 126.145 34.4557 126.145 32.7051V32.3796C126.145 31.2077 126.369 30.1624 126.818 29.2437C127.274 28.3178 127.91 27.598 128.728 27.0844C129.545 26.5708 130.457 26.314 131.462 26.314C133.061 26.314 134.294 26.824 135.162 27.844C136.037 28.8639 136.475 30.3071 136.475 32.1734V33.2368H128.804C128.883 34.2061 129.205 34.9729 129.769 35.5371C130.341 36.1013 131.057 36.3835 131.918 36.3835C133.126 36.3835 134.11 35.8952 134.869 34.9186L136.291 36.275C135.82 36.9766 135.191 37.5228 134.403 37.9134C133.621 38.2968 132.742 38.4885 131.766 38.4885ZM131.451 28.4299C130.728 28.4299 130.142 28.6831 129.693 29.1895C129.252 29.6958 128.97 30.4011 128.847 31.3053H133.871V31.11C133.813 30.2275 133.578 29.562 133.166 29.1135C132.753 28.6578 132.182 28.4299 131.451 28.4299Z" fill="#7B7B7B"/>
<path d="M44.1267 19.1356V11.2363H46.3565C47.0437 11.2363 47.6514 11.3882 48.1794 11.692C48.7075 11.9958 49.1144 12.428 49.4001 12.9887C49.6895 13.5493 49.836 14.1931 49.8396 14.9201V15.4246C49.8396 16.1697 49.6949 16.8226 49.4056 17.3832C49.1198 17.9438 48.7093 18.3742 48.174 18.6744C47.6423 18.9746 47.022 19.1283 46.3131 19.1356H44.1267ZM45.1684 12.0935V18.2838H46.2643C47.0672 18.2838 47.6912 18.0342 48.136 17.5351C48.5845 17.036 48.8088 16.3253 48.8088 15.4029V14.9418C48.8088 14.0448 48.5972 13.3485 48.174 12.853C47.7545 12.3539 47.1577 12.1007 46.3837 12.0935H45.1684Z" fill="#7B7B7B"/>
<path d="M51.2174 16.1462C51.2174 15.5711 51.3295 15.0539 51.5538 14.5946C51.7817 14.1352 52.0963 13.7808 52.4978 13.5312C52.9029 13.2816 53.364 13.1568 53.8813 13.1568C54.6806 13.1568 55.3262 13.4335 55.8181 13.9869C56.3136 14.5403 56.5614 15.2763 56.5614 16.195V16.2656C56.5614 16.837 56.4511 17.3506 56.2304 17.8064C56.0134 18.2585 55.7006 18.6111 55.2919 18.8643C54.8868 19.1175 54.4202 19.2441 53.8921 19.2441C53.0964 19.2441 52.4508 18.9674 51.9553 18.414C51.4634 17.8606 51.2174 17.1282 51.2174 16.2167V16.1462ZM52.2265 16.2656C52.2265 16.9166 52.3766 17.4393 52.6768 17.8335C52.9807 18.2277 53.3858 18.4249 53.8921 18.4249C54.4021 18.4249 54.8072 18.2259 55.1074 17.8281C55.4076 17.4266 55.5577 16.866 55.5577 16.1462C55.5577 15.5024 55.404 14.9816 55.0965 14.5837C54.7927 14.1822 54.3876 13.9815 53.8813 13.9815C53.3858 13.9815 52.9861 14.1786 52.6823 14.5729C52.3784 14.9671 52.2265 15.5313 52.2265 16.2656Z" fill="#7B7B7B"/>
<path d="M63.2398 17.7521L64.3682 13.2654H65.3719L63.663 19.1356H62.8491L61.4223 14.6868L60.0334 19.1356H59.2196L57.516 13.2654H58.5143L59.6699 17.6599L61.0371 13.2654H61.8455L63.2398 17.7521Z" fill="#7B7B7B"/>
<path d="M67.569 13.2654L67.6015 14.0032C68.05 13.439 68.636 13.1568 69.3593 13.1568C70.5999 13.1568 71.2257 13.8567 71.2365 15.2565V19.1356H70.2328V15.251C70.2292 14.8279 70.1316 14.515 69.9399 14.3124C69.7518 14.1099 69.457 14.0086 69.0555 14.0086C68.73 14.0086 68.4443 14.0954 68.1983 14.269C67.9524 14.4427 67.7607 14.6705 67.6232 14.9526V19.1356H66.6195V13.2654H67.569Z" fill="#7B7B7B"/>
<path d="M74.0629 19.1356H73.0592V10.8022H74.0629V19.1356Z" fill="#7B7B7B"/>
<path d="M75.6306 16.1462C75.6306 15.5711 75.7427 15.0539 75.967 14.5946C76.1949 14.1352 76.5095 13.7808 76.911 13.5312C77.3161 13.2816 77.7772 13.1568 78.2945 13.1568C79.0938 13.1568 79.7394 13.4335 80.2313 13.9869C80.7268 14.5403 80.9746 15.2763 80.9746 16.195V16.2656C80.9746 16.837 80.8643 17.3506 80.6436 17.8064C80.4266 18.2585 80.1138 18.6111 79.7051 18.8643C79.3 19.1175 78.8334 19.2441 78.3053 19.2441C77.5096 19.2441 76.864 18.9674 76.3685 18.414C75.8766 17.8606 75.6306 17.1282 75.6306 16.2167V16.1462ZM76.6397 16.2656C76.6397 16.9166 76.7898 17.4393 77.09 17.8335C77.3939 18.2277 77.7989 18.4249 78.3053 18.4249C78.8153 18.4249 79.2204 18.2259 79.5206 17.8281C79.8208 17.4266 79.9709 16.866 79.9709 16.1462C79.9709 15.5024 79.8172 14.9816 79.5097 14.5837C79.2059 14.1822 78.8008 13.9815 78.2945 13.9815C77.7989 13.9815 77.3993 14.1786 77.0955 14.5729C76.7916 14.9671 76.6397 15.5313 76.6397 16.2656Z" fill="#7B7B7B"/>
<path d="M86.0796 19.1356C86.0217 19.0198 85.9747 18.8137 85.9386 18.5171C85.472 19.0018 84.915 19.2441 84.2676 19.2441C83.6889 19.2441 83.2132 19.0813 82.8407 18.7558C82.4718 18.4267 82.2873 18.0107 82.2873 17.508C82.2873 16.8967 82.5188 16.4229 82.9817 16.0865C83.4483 15.7465 84.103 15.5766 84.9457 15.5766H85.9223V15.1154C85.9223 14.7646 85.8174 14.4861 85.6076 14.2799C85.3978 14.0701 85.0886 13.9652 84.6799 13.9652C84.3218 13.9652 84.0216 14.0556 83.7793 14.2365C83.5369 14.4173 83.4158 14.6362 83.4158 14.893H82.4067C82.4067 14.6 82.5097 14.3179 82.7159 14.0466C82.9257 13.7717 83.2078 13.5547 83.5623 13.3956C83.9203 13.2364 84.3128 13.1568 84.7396 13.1568C85.4159 13.1568 85.9458 13.3268 86.3292 13.6668C86.7126 14.0032 86.9115 14.468 86.926 15.0611V17.763C86.926 18.3019 86.9947 18.7305 87.1321 19.0488V19.1356H86.0796ZM84.414 18.3706C84.7287 18.3706 85.0271 18.2892 85.3092 18.1265C85.5913 17.9637 85.7957 17.7521 85.9223 17.4917V16.2873H85.1356C83.9059 16.2873 83.291 16.6472 83.291 17.3669C83.291 17.6816 83.3959 17.9275 83.6057 18.1048C83.8154 18.282 84.0849 18.3706 84.414 18.3706Z" fill="#7B7B7B"/>
<path d="M88.4774 16.1516C88.4774 15.251 88.6908 14.5277 89.1176 13.9815C89.5444 13.4317 90.1032 13.1568 90.794 13.1568C91.4812 13.1568 92.0256 13.3919 92.4271 13.8621V10.8022H93.4307V19.1356H92.5084L92.4596 18.5062C92.0581 18.9981 91.4993 19.2441 90.7832 19.2441C90.1032 19.2441 89.548 18.9656 89.1176 18.4086C88.6908 17.8516 88.4774 17.1246 88.4774 16.2276V16.1516ZM89.4811 16.2656C89.4811 16.9311 89.6185 17.4519 89.8934 17.8281C90.1683 18.2042 90.5481 18.3923 91.0327 18.3923C91.6693 18.3923 92.1341 18.1066 92.4271 17.5351V14.8387C92.1269 14.2853 91.6657 14.0086 91.0436 14.0086C90.5517 14.0086 90.1683 14.1985 89.8934 14.5783C89.6185 14.9581 89.4811 15.5205 89.4811 16.2656Z" fill="#7B7B7B"/>
<path d="M97.9279 16.1462C97.9279 15.5711 98.04 15.0539 98.2643 14.5946C98.4922 14.1352 98.8068 13.7808 99.2083 13.5312C99.6134 13.2816 100.075 13.1568 100.592 13.1568C101.391 13.1568 102.037 13.4335 102.529 13.9869C103.024 14.5403 103.272 15.2763 103.272 16.195V16.2656C103.272 16.837 103.162 17.3506 102.941 17.8064C102.724 18.2585 102.411 18.6111 102.002 18.8643C101.597 19.1175 101.131 19.2441 100.603 19.2441C99.8069 19.2441 99.1613 18.9674 98.6658 18.414C98.1739 17.8606 97.9279 17.1282 97.9279 16.2167V16.1462ZM98.937 16.2656C98.937 16.9166 99.0871 17.4393 99.3873 17.8335C99.6912 18.2277 100.096 18.4249 100.603 18.4249C101.113 18.4249 101.518 18.2259 101.818 17.8281C102.118 17.4266 102.268 16.866 102.268 16.1462C102.268 15.5024 102.114 14.9816 101.807 14.5837C101.503 14.1822 101.098 13.9815 100.592 13.9815C100.096 13.9815 99.6966 14.1786 99.3928 14.5729C99.0889 14.9671 98.937 15.5313 98.937 16.2656Z" fill="#7B7B7B"/>
<path d="M105.702 13.2654L105.735 14.0032C106.183 13.439 106.769 13.1568 107.493 13.1568C108.733 13.1568 109.359 13.8567 109.37 15.2565V19.1356H108.366V15.251C108.362 14.8279 108.265 14.515 108.073 14.3124C107.885 14.1099 107.59 14.0086 107.189 14.0086C106.863 14.0086 106.578 14.0954 106.332 14.269C106.086 14.4427 105.894 14.6705 105.756 14.9526V19.1356H104.753V13.2654H105.702Z" fill="#7B7B7B"/>
<path d="M115.446 11.8439V13.2654H116.542V14.0412H115.446V17.6816C115.446 17.9167 115.495 18.0939 115.592 18.2133C115.69 18.329 115.856 18.3869 116.091 18.3869C116.207 18.3869 116.366 18.3652 116.569 18.3218V19.1356C116.305 19.2079 116.048 19.2441 115.798 19.2441C115.35 19.2441 115.012 19.1085 114.784 18.8372C114.556 18.5659 114.442 18.1807 114.442 17.6816V14.0412H113.373V13.2654H114.442V11.8439H115.446Z" fill="#7B7B7B"/>
<path d="M118.945 13.9761C119.39 13.4299 119.968 13.1568 120.681 13.1568C121.922 13.1568 122.547 13.8567 122.558 15.2565V19.1356H121.554V15.251C121.551 14.8279 121.453 14.515 121.261 14.3124C121.073 14.1099 120.779 14.0086 120.377 14.0086C120.052 14.0086 119.766 14.0954 119.52 14.269C119.274 14.4427 119.082 14.6705 118.945 14.9526V19.1356H117.941V10.8022H118.945V13.9761Z" fill="#7B7B7B"/>
<path d="M126.719 19.2441C125.923 19.2441 125.276 18.9837 124.777 18.4628C124.278 17.9384 124.028 17.2385 124.028 16.3632V16.1788C124.028 15.5964 124.138 15.0774 124.359 14.6217C124.583 14.1623 124.894 13.8043 125.292 13.5475C125.694 13.2871 126.128 13.1568 126.594 13.1568C127.358 13.1568 127.951 13.4082 128.374 13.911C128.797 14.4137 129.009 15.1335 129.009 16.0703V16.488H125.032C125.046 17.0667 125.215 17.5351 125.536 17.8932C125.862 18.2476 126.274 18.4249 126.773 18.4249C127.128 18.4249 127.428 18.3525 127.674 18.2078C127.92 18.0632 128.135 17.8715 128.32 17.6328L128.933 18.1102C128.441 18.8661 127.703 19.2441 126.719 19.2441ZM126.594 13.9815C126.189 13.9815 125.849 14.1298 125.574 14.4264C125.3 14.7193 125.13 15.1317 125.064 15.6634H128.005V15.5874C127.976 15.0774 127.839 14.6832 127.593 14.4047C127.347 14.1226 127.014 13.9815 126.594 13.9815Z" fill="#7B7B7B"/>
<path fill-rule="evenodd" clip-rule="evenodd" d="M136.42 1.23457H9.87654C5.10371 1.23457 1.23457 5.10371 1.23457 9.87654V40.1235C1.23457 44.8963 5.10371 48.7654 9.87654 48.7654H136.42C141.193 48.7654 145.062 44.8963 145.062 40.1235V9.87654C145.062 5.10371 141.193 1.23457 136.42 1.23457ZM9.87654 0C4.42188 0 0 4.42188 0 9.87654V40.1235C0 45.5781 4.42188 50 9.87654 50H136.42C141.874 50 146.296 45.5781 146.296 40.1235V9.87654C146.296 4.42188 141.874 0 136.42 0H9.87654Z" fill="#7B7B7B"/>
<path d="M22.9926 19.4096C21.9112 19.4096 20.2371 18.18 18.4741 18.2245C16.1482 18.2541 14.0149 19.5726 12.8149 21.6615C10.4 25.8541 12.1926 32.0467 14.5482 35.4541C15.7037 37.1133 17.0667 38.98 18.8741 38.9207C20.6075 38.8467 21.2593 37.7948 23.363 37.7948C25.4519 37.7948 26.0445 38.9207 27.8815 38.8763C29.7482 38.8467 30.9334 37.1874 32.0741 35.5133C33.3926 33.5874 33.9408 31.7207 33.9704 31.617C33.926 31.6022 30.3408 30.2244 30.2963 26.0763C30.2667 22.6096 33.126 20.9504 33.2593 20.8763C31.6297 18.4911 29.126 18.2245 28.2519 18.1652C25.9704 17.9874 24.0593 19.4096 22.9926 19.4096ZM26.8445 15.9133C27.8075 14.7578 28.4445 13.143 28.2667 11.543C26.8889 11.6022 25.2297 12.4615 24.2371 13.617C23.3482 14.6393 22.5778 16.2837 22.7852 17.8541C24.3112 17.9726 25.8815 17.0689 26.8445 15.9133Z" fill="#7B7B7B"/>
</svg>
