<svg width="168" height="50" viewBox="0 0 168 50" fill="none" xmlns="http://www.w3.org/2000/svg">
<path d="M53.8574 30.7821H60.7802V31.3355C60.7802 32.5941 60.6319 33.7081 60.3353 34.6775C60.046 35.5745 59.5577 36.4136 58.8705 37.1948C57.3152 38.9454 55.3368 39.8207 52.9351 39.8207C50.5914 39.8207 48.584 38.9743 46.913 37.2816C45.242 35.5817 44.4065 33.5418 44.4065 31.1618C44.4065 28.7313 45.2565 26.6697 46.9564 24.9769C48.6563 23.277 50.7252 22.427 53.163 22.427C54.4723 22.427 55.6948 22.6947 56.8305 23.23C57.9156 23.7653 58.9826 24.6333 60.0315 25.8341L58.2303 27.5594C56.8559 25.7293 55.1812 24.8142 53.2064 24.8142C51.4341 24.8142 49.9476 25.4254 48.7468 26.6479C47.546 27.8488 46.9456 29.3534 46.9456 31.1618C46.9456 33.0282 47.6147 34.5653 48.9529 35.7734C50.2044 36.8946 51.5607 37.4552 53.0219 37.4552C54.2662 37.4552 55.3838 37.0357 56.3748 36.1966C57.3658 35.3502 57.9192 34.3375 58.035 33.1584H53.8574V30.7821Z" fill="#7B7B7B"/>
<path d="M61.8935 34.1458C61.8935 32.6194 62.4396 31.321 63.5319 30.2504C64.6242 29.1798 65.9552 28.6445 67.525 28.6445C69.102 28.6445 70.4402 29.1834 71.5397 30.2612C72.6248 31.3391 73.1673 32.6629 73.1673 34.2326C73.1673 35.8168 72.6212 37.1442 71.5289 38.2148C70.4294 39.2782 69.0802 39.8098 67.4816 39.8098C65.8974 39.8098 64.57 39.2673 63.4994 38.1822C62.4288 37.1116 61.8935 35.7662 61.8935 34.1458ZM64.3891 34.1892C64.3891 35.2453 64.6713 36.0808 65.2355 36.6957C65.8142 37.3178 66.5774 37.6289 67.525 37.6289C68.4798 37.6289 69.243 37.3214 69.8145 36.7065C70.386 36.0917 70.6717 35.2706 70.6717 34.2434C70.6717 33.2162 70.386 32.3952 69.8145 31.7803C69.2358 31.1582 68.4726 30.8472 67.525 30.8472C66.5918 30.8472 65.8359 31.1582 65.2572 31.7803C64.6785 32.4024 64.3891 33.2054 64.3891 34.1892Z" fill="#7B7B7B"/>
<path d="M74.1504 34.1458C74.1504 32.6194 74.6966 31.321 75.7889 30.2504C76.8812 29.1798 78.2122 28.6445 79.7819 28.6445C81.3589 28.6445 82.6971 29.1834 83.7967 30.2612C84.8818 31.3391 85.4243 32.6629 85.4243 34.2326C85.4243 35.8168 84.8781 37.1442 83.7858 38.2148C82.6863 39.2782 81.3372 39.8098 79.7385 39.8098C78.1543 39.8098 76.8269 39.2673 75.7563 38.1822C74.6857 37.1116 74.1504 35.7662 74.1504 34.1458ZM76.6461 34.1892C76.6461 35.2453 76.9282 36.0808 77.4924 36.6957C78.0711 37.3178 78.8343 37.6289 79.7819 37.6289C80.7368 37.6289 81.5 37.3214 82.0714 36.7065C82.6429 36.0917 82.9286 35.2706 82.9286 34.2434C82.9286 33.2162 82.6429 32.3952 82.0714 31.7803C81.4927 31.1582 80.7296 30.8472 79.7819 30.8472C78.8488 30.8472 78.0928 31.1582 77.5141 31.7803C76.9354 32.4024 76.6461 33.2054 76.6461 34.1892Z" fill="#7B7B7B"/>
<path d="M97.1278 39.2565C97.1278 39.7556 97.1098 40.1932 97.0736 40.5694C97.0447 40.9528 97.0013 41.2892 96.9434 41.5785C96.7698 42.3742 96.4298 43.0578 95.9234 43.6293C94.9686 44.7288 93.6556 45.2786 91.9846 45.2786C90.574 45.2786 89.413 44.8988 88.5015 44.1393C87.5611 43.358 87.0186 42.2766 86.8739 40.8949H89.3262C89.4202 41.4157 89.5758 41.8172 89.7928 42.0993C90.2991 42.7576 91.037 43.0868 92.0063 43.0868C93.7931 43.0868 94.6864 41.9908 94.6864 39.799V38.3233C93.7171 39.3143 92.5995 39.8098 91.3336 39.8098C89.8941 39.8098 88.7149 39.289 87.7962 38.2473C86.8703 37.1912 86.4074 35.871 86.4074 34.2868C86.4074 32.746 86.8378 31.4367 87.6986 30.3589C88.6245 29.2159 89.847 28.6445 91.3661 28.6445C92.6971 28.6445 93.8039 29.14 94.6864 30.131V28.9374H97.1278V39.2565ZM94.7841 34.2434C94.7841 33.2162 94.5092 32.3952 93.9594 31.7803C93.4024 31.151 92.6899 30.8363 91.8219 30.8363C90.8959 30.8363 90.1653 31.1799 89.63 31.8671C89.1454 32.482 88.903 33.2777 88.903 34.2543C88.903 35.2164 89.1454 36.0049 89.63 36.6197C90.1581 37.2925 90.8887 37.6289 91.8219 37.6289C92.755 37.6289 93.4929 37.2889 94.0354 36.6089C94.5345 35.994 94.7841 35.2055 94.7841 34.2434Z" fill="#7B7B7B"/>
<path d="M101.54 21.1792V39.506H99.0983V21.1792H101.54Z" fill="#7B7B7B"/>
<path d="M113.146 34.7968H105.572C105.637 35.6649 105.919 36.3557 106.418 36.8693C106.917 37.3757 107.558 37.6289 108.339 37.6289C108.946 37.6289 109.449 37.4842 109.847 37.1948C110.238 36.9055 110.683 36.3702 111.182 35.5889L113.243 36.7391C112.925 37.2816 112.589 37.7482 112.234 38.1388C111.88 38.5222 111.5 38.8405 111.095 39.0937C110.69 39.3396 110.252 39.5205 109.782 39.6362C109.312 39.752 108.802 39.8098 108.252 39.8098C106.675 39.8098 105.409 39.3035 104.454 38.2907C103.499 37.2708 103.022 35.9181 103.022 34.2326C103.022 32.5616 103.485 31.2089 104.411 30.1744C105.344 29.1545 106.581 28.6445 108.122 28.6445C109.677 28.6445 110.907 29.14 111.811 30.131C112.708 31.1148 113.156 32.4784 113.156 34.2217L113.146 34.7968ZM110.639 32.8003C110.299 31.4982 109.478 30.8472 108.176 30.8472C107.879 30.8472 107.601 30.8942 107.341 30.9882C107.08 31.075 106.841 31.2052 106.624 31.3789C106.415 31.5452 106.234 31.7478 106.082 31.9865C105.93 32.2252 105.814 32.4965 105.735 32.8003H110.639Z" fill="#7B7B7B"/>
<path d="M123.456 32.7026V39.506H120.928V22.7526H123.792C125.196 22.7526 126.255 22.8502 126.972 23.0455C127.695 23.2408 128.332 23.6098 128.881 24.1523C129.843 25.0927 130.324 26.279 130.324 27.7113C130.324 29.2449 129.811 30.4602 128.784 31.3572C127.756 32.2541 126.371 32.7026 124.628 32.7026H123.456ZM123.456 30.3589H124.4C126.722 30.3589 127.883 29.4655 127.883 27.6788C127.883 25.9499 126.686 25.0854 124.291 25.0854H123.456V30.3589Z" fill="#7B7B7B"/>
<path d="M133.792 21.1792V39.506H131.351V21.1792H133.792Z" fill="#7B7B7B"/>
<path d="M143.564 28.9374H146.017V39.506H143.564V38.3993C142.559 39.3396 141.478 39.8098 140.32 39.8098C138.859 39.8098 137.651 39.2818 136.696 38.2256C135.748 37.1478 135.275 35.8023 135.275 34.1892C135.275 32.605 135.748 31.2848 136.696 30.2287C137.644 29.1725 138.83 28.6445 140.255 28.6445C141.485 28.6445 142.588 29.1508 143.564 30.1636V28.9374ZM137.77 34.1892C137.77 35.2019 138.041 36.0266 138.584 36.6631C139.141 37.3069 139.843 37.6289 140.689 37.6289C141.593 37.6289 142.324 37.3178 142.881 36.6957C143.438 36.0519 143.716 35.2345 143.716 34.2434C143.716 33.2524 143.438 32.435 142.881 31.7912C142.324 31.1618 141.601 30.8472 140.711 30.8472C139.872 30.8472 139.17 31.1655 138.606 31.802C138.049 32.4458 137.77 33.2416 137.77 34.1892Z" fill="#7B7B7B"/>
<path d="M151.514 37.542L146.761 28.9374H149.593L152.827 35.0138L155.843 28.9374H158.599L150.179 45.2569H147.39L151.514 37.542Z" fill="#7B7B7B"/>
<path fill-rule="evenodd" clip-rule="evenodd" d="M158.568 1.23457H9.43158C4.87378 1.23457 1.17895 5.10371 1.17895 9.87654V40.1235C1.17895 44.8963 4.87378 48.7654 9.43158 48.7654H158.568C163.126 48.7654 166.821 44.8963 166.821 40.1235V9.87654C166.821 5.10371 163.126 1.23457 158.568 1.23457ZM9.43158 0C4.22266 0 0 4.42188 0 9.87654V40.1235C0 45.5781 4.22266 50 9.43158 50H158.568C163.777 50 168 45.5781 168 40.1235V9.87654C168 4.42188 163.777 0 158.568 0H9.43158Z" fill="#7B7B7B"/>
<path d="M49.9837 18.0995C49.7161 18.4829 49.3417 18.7704 48.8607 18.9621C48.3832 19.1502 47.8262 19.2443 47.1897 19.2443C46.5459 19.2443 45.9744 19.0941 45.4753 18.7939C44.9761 18.4901 44.5891 18.0597 44.3142 17.5027C44.043 16.9457 43.9037 16.3001 43.8965 15.5659V14.8768C43.8965 13.6869 44.1732 12.7646 44.7266 12.1099C45.2836 11.4553 46.0648 11.1279 47.0703 11.1279C47.895 11.1279 48.5587 11.3395 49.0614 11.7627C49.5642 12.1823 49.8716 12.779 49.9837 13.5531H48.9421C48.7467 12.5078 48.1246 11.9851 47.0757 11.9851C46.3777 11.9851 45.8478 12.2311 45.4861 12.723C45.128 13.2113 44.9472 13.9202 44.9436 14.8497V15.4953C44.9436 16.3815 45.1461 17.0868 45.5512 17.6112C45.9563 18.1321 46.5043 18.3925 47.1951 18.3925C47.5857 18.3925 47.9275 18.3491 48.2205 18.2623C48.5135 18.1755 48.7558 18.029 48.9475 17.8228V16.0487H47.1191V15.2024H49.9837V18.0995Z" fill="#7B7B7B"/>
<path d="M56.1903 15.4845H52.7669V18.284H56.7437V19.1357H51.7253V11.2364H56.6895V12.0936H52.7669V14.6327H56.1903V15.4845Z" fill="#7B7B7B"/>
<path d="M63.6068 12.0936H61.0677V19.1357H60.0315V12.0936H57.4978V11.2364H63.6068V12.0936Z" fill="#7B7B7B"/>
<path d="M68.4353 19.1357H67.3937V11.2364H68.4353V19.1357Z" fill="#7B7B7B"/>
<path d="M75.6402 12.0936H73.1011V19.1357H72.0649V12.0936H69.5312V11.2364H75.6402V12.0936Z" fill="#7B7B7B"/>
<path d="M85.4275 15.4411C85.4275 16.2151 85.2973 16.8915 85.0369 17.4702C84.7765 18.0452 84.4076 18.4847 83.9301 18.7885C83.4527 19.0923 82.8957 19.2443 82.2591 19.2443C81.637 19.2443 81.0854 19.0923 80.6044 18.7885C80.1233 18.4811 79.749 18.0452 79.4813 17.481C79.2173 16.9132 79.0817 16.2567 79.0744 15.5116V14.9419C79.0744 14.1824 79.2065 13.5115 79.4705 12.9291C79.7345 12.3468 80.1071 11.9019 80.5881 11.5945C81.0728 11.2835 81.6262 11.1279 82.2483 11.1279C82.8812 11.1279 83.4382 11.2816 83.9193 11.5891C84.4039 11.8929 84.7765 12.336 85.0369 12.9183C85.2973 13.497 85.4275 14.1716 85.4275 14.9419V15.4411ZM84.3913 14.9311C84.3913 13.9943 84.2032 13.2764 83.827 12.7772C83.4509 12.2745 82.9246 12.0231 82.2483 12.0231C81.59 12.0231 81.071 12.2745 80.6912 12.7772C80.315 13.2764 80.1215 13.9708 80.1107 14.8606V15.4411C80.1107 16.3489 80.3006 17.0633 80.6803 17.5841C81.0637 18.1013 81.59 18.3599 82.2591 18.3599C82.9319 18.3599 83.4527 18.1158 83.8216 17.6275C84.1905 17.1356 84.3804 16.4321 84.3913 15.517V14.9311Z" fill="#7B7B7B"/>
<path d="M93.061 19.1357H92.0139L88.0371 13.0485V19.1357H86.99V11.2364H88.0371L92.0247 17.3508V11.2364H93.061V19.1357Z" fill="#7B7B7B"/>
<path d="M12.9032 12.5L25.632 25.2325L12.9045 37.965C12.6781 37.8699 12.485 37.7099 12.3493 37.5053C12.2137 37.3007 12.1415 37.0605 12.142 36.815V13.65C12.1421 13.4048 12.2143 13.165 12.3496 12.9605C12.485 12.756 12.6775 12.5959 12.9032 12.5ZM26.5157 26.1162L29.3932 28.9937L15.722 36.91L26.5157 26.1162ZM30.5145 22.1187L34.0232 24.1512C34.2126 24.2611 34.3699 24.4188 34.4792 24.6086C34.5885 24.7984 34.646 25.0135 34.646 25.2325C34.646 25.4515 34.5885 25.6666 34.4792 25.8564C34.3699 26.0462 34.2126 26.2039 34.0232 26.3137L30.5132 28.3462L27.3995 25.2325L30.5145 22.1187ZM15.722 13.555L29.3945 21.47L26.5157 24.3487L15.722 13.555Z" fill="#7B7B7B"/>
</svg>
