<svg width="24" height="24" viewBox="0 0 24 24" fill="none" xmlns="http://www.w3.org/2000/svg">
<path d="M18.75 5H5.25C4.65326 5 4.08097 5.20114 3.65901 5.55916C3.23705 5.91718 3 6.40277 3 6.90909L3 19H21V6.90909C21 6.40277 20.7629 5.91718 20.341 5.55916C19.919 5.20114 19.3467 5 18.75 5ZM5.25 6.27273H18.75C18.9489 6.27273 19.1397 6.33977 19.2803 6.45911C19.421 6.57846 19.5 6.74032 19.5 6.90909V7.33355L13.5915 12.3475C13.1688 12.7047 12.5966 12.9052 12 12.9052C11.4034 12.9052 10.8312 12.7047 10.4085 12.3475L4.5 7.33355V6.90909C4.5 6.74032 4.57902 6.57846 4.71967 6.45911C4.86032 6.33977 5.05109 6.27273 5.25 6.27273ZM4.5 17.7273V9.13636L9.348 13.2473C10.052 13.8431 11.0057 14.1777 12 14.1777C12.9943 14.1777 13.948 13.8431 14.652 13.2473L19.5 9.13636V17.7273H4.5Z" fill="url(#paint0_linear_190_2075)"/>
<defs>
<linearGradient id="paint0_linear_190_2075" x1="12" y1="5.05388" x2="12" y2="18.9461" gradientUnits="userSpaceOnUse">
<stop stop-color="#2D2DFF"/>
<stop offset="1" stop-color="#00D4FF"/>
<stop offset="1" stop-color="#00D4FF"/>
</linearGradient>
</defs>
</svg>
