<svg width="35" height="35" viewBox="0 0 35 35" fill="none" xmlns="http://www.w3.org/2000/svg">
<path d="M18.875 11.2969C18.1084 11.2969 17.3731 11.6014 16.831 12.1435C16.2889 12.6856 15.9844 13.4209 15.9844 14.1875V15.7969H14.4375C14.3598 15.7969 14.2969 15.8598 14.2969 15.9375V18.0625C14.2969 18.1402 14.3598 18.2031 14.4375 18.2031H15.9844V22.5625C15.9844 22.6402 16.0473 22.7031 16.125 22.7031H18.25C18.3277 22.7031 18.3906 22.6402 18.3906 22.5625V18.2031H19.9512C20.0157 18.2031 20.072 18.1592 20.0876 18.0966L20.6189 15.9716C20.6411 15.8829 20.5739 15.7969 20.4825 15.7969H18.3906V14.1875C18.3906 14.059 18.4417 13.9358 18.5325 13.845C18.6233 13.7542 18.7465 13.7031 18.875 13.7031H20.5C20.5777 13.7031 20.6406 13.6402 20.6406 13.5625V11.4375C20.6406 11.3598 20.5777 11.2969 20.5 11.2969H18.875Z" fill="url(#paint0_linear_61_364)"/>
<defs>
<linearGradient id="paint0_linear_61_364" x1="12.3711" y1="8.76215" x2="22.7292" y2="9.23584" gradientUnits="userSpaceOnUse">
<stop stop-color="#2D2DFF"/>
<stop offset="1" stop-color="#00D4FF"/>
<stop offset="1" stop-color="#00D4FF"/>
</linearGradient>
</defs>
</svg>
