<svg width="35" height="35" viewBox="0 0 35 35" fill="none" xmlns="http://www.w3.org/2000/svg">
<path d="M12.4688 10.6719C11.7352 10.6719 11.1406 11.2665 11.1406 12C11.1406 12.7335 11.7352 13.3281 12.4688 13.3281C13.2023 13.3281 13.7969 12.7335 13.7969 12C13.7969 11.2665 13.2023 10.6719 12.4688 10.6719Z" fill="url(#paint0_linear_61_367)"/>
<path d="M11.2188 14.4219C11.1756 14.4219 11.1406 14.4569 11.1406 14.5V22.625C11.1406 22.6681 11.1756 22.7031 11.2188 22.7031H13.7188C13.7619 22.7031 13.7969 22.6681 13.7969 22.625V14.5C13.7969 14.4569 13.7619 14.4219 13.7188 14.4219H11.2188Z" fill="url(#paint1_linear_61_367)"/>
<path d="M15.2812 14.4219C15.2381 14.4219 15.2031 14.4569 15.2031 14.5V22.625C15.2031 22.6681 15.2381 22.7031 15.2812 22.7031H17.7812C17.8244 22.7031 17.8594 22.6681 17.8594 22.625V18.25C17.8594 17.9392 17.9828 17.6411 18.2026 17.4214C18.4224 17.2016 18.7204 17.0781 19.0312 17.0781C19.3421 17.0781 19.6401 17.2016 19.8599 17.4214C20.0797 17.6411 20.2031 17.9392 20.2031 18.25V22.625C20.2031 22.6681 20.2381 22.7031 20.2812 22.7031H22.7812C22.8244 22.7031 22.8594 22.6681 22.8594 22.625V17.2377C22.8594 15.7209 21.5402 14.5344 20.0311 14.6716C19.5657 14.7139 19.1056 14.8296 18.6759 15.0137L17.8594 15.3637V14.5C17.8594 14.4569 17.8244 14.4219 17.7812 14.4219H15.2812Z" fill="url(#paint2_linear_61_367)"/>
<defs>
<linearGradient id="paint0_linear_61_367" x1="7.58315" y1="7.99826" x2="26.6353" y2="9.52416" gradientUnits="userSpaceOnUse">
<stop stop-color="#2D2DFF"/>
<stop offset="1" stop-color="#00D4FF"/>
<stop offset="1" stop-color="#00D4FF"/>
</linearGradient>
<linearGradient id="paint1_linear_61_367" x1="7.58315" y1="7.99826" x2="26.6353" y2="9.52416" gradientUnits="userSpaceOnUse">
<stop stop-color="#2D2DFF"/>
<stop offset="1" stop-color="#00D4FF"/>
<stop offset="1" stop-color="#00D4FF"/>
</linearGradient>
<linearGradient id="paint2_linear_61_367" x1="7.58315" y1="7.99826" x2="26.6353" y2="9.52416" gradientUnits="userSpaceOnUse">
<stop stop-color="#2D2DFF"/>
<stop offset="1" stop-color="#00D4FF"/>
<stop offset="1" stop-color="#00D4FF"/>
</linearGradient>
</defs>
</svg>
