<svg width="24" height="24" viewBox="0 0 24 24" fill="none" xmlns="http://www.w3.org/2000/svg">
<path d="M8.25077 9.00064V8.25078C8.25054 7.41949 8.52659 6.61169 9.03552 5.95439C9.54444 5.29709 10.2574 4.82756 11.0623 4.61962C11.8671 4.41169 12.7183 4.47714 13.4819 4.80568C14.2455 5.13423 14.8783 5.70724 15.2807 6.43462L16.5922 5.7065C16.0286 4.68843 15.1425 3.88653 14.0735 3.42686C13.0044 2.96719 11.8129 2.87581 10.6862 3.16709C9.55956 3.45837 8.56164 4.11579 7.84932 5.03602C7.13699 5.95624 6.75066 7.08708 6.75105 8.25078V9.00064H4.50146V18.7488C4.50146 19.3455 4.73847 19.9177 5.16035 20.3395C5.58223 20.7614 6.15442 20.9984 6.75105 20.9984H17.2491C17.8457 20.9984 18.4179 20.7614 18.8398 20.3395C19.2617 19.9177 19.4987 19.3455 19.4987 18.7488V9.00064H8.25077ZM17.999 18.7488C17.999 18.9477 17.92 19.1385 17.7793 19.2791C17.6387 19.4197 17.448 19.4987 17.2491 19.4987H6.75105C6.55217 19.4987 6.36144 19.4197 6.22082 19.2791C6.08019 19.1385 6.00119 18.9477 6.00119 18.7488V10.5004H17.999V18.7488Z" fill="url(#paint0_linear_190_2079)"/>
<path d="M12.7497 13.4995H11.25V16.499H12.7497V13.4995Z" fill="black"/>
<defs>
<linearGradient id="paint0_linear_190_2079" x1="12.0001" y1="3.06927" x2="12.0001" y2="20.9292" gradientUnits="userSpaceOnUse">
<stop stop-color="#2D2DFF"/>
<stop offset="1" stop-color="#00D4FF"/>
<stop offset="1" stop-color="#00D4FF"/>
</linearGradient>
</defs>
</svg>
