<svg width="30" height="30" viewBox="0 0 30 30" fill="none" xmlns="http://www.w3.org/2000/svg">
<path fill-rule="evenodd" clip-rule="evenodd" d="M9.75347 5.17981C9.6518 5.05379 9.4707 5.0263 9.33622 5.11647L7.67016 6.2336C6.27322 7.17027 5.75918 8.98021 6.45526 10.5113L7.10142 11.9327L7.10239 11.9348C9.40055 16.9401 13.49 20.9198 18.5741 23.0772L18.5894 23.0837L19.4389 23.4624C20.9659 24.1427 22.761 23.6258 23.6924 22.2376L24.8025 20.5829C24.8928 20.4484 24.8653 20.2673 24.7392 20.1656L20.9744 17.1284C20.8362 17.0168 20.6329 17.0428 20.5272 17.1855L19.3625 18.7571C19.0927 19.1212 18.601 19.2402 18.1945 19.0397C15.021 17.4742 12.4449 14.8982 10.8795 11.7246C10.679 11.3182 10.798 10.8265 11.1621 10.5567L12.7336 9.39203C12.8764 9.28627 12.9023 9.08298 12.7908 8.94474L9.75347 5.17981ZM11.2128 4.00252L14.2501 7.76745C15.0308 8.73516 14.849 10.1582 13.85 10.8985L12.9248 11.5841C14.1993 13.8456 16.0736 15.7198 18.335 16.9944L19.0207 16.0691C19.761 15.0702 21.184 14.8883 22.1517 15.669L25.9165 18.7063C26.7989 19.4181 26.9912 20.6861 26.3596 21.6275L25.2495 23.2822C23.81 25.4277 21.0358 26.2265 18.6758 25.1751L17.8339 24.7999C12.3227 22.459 7.89008 18.144 5.39841 12.7171L5.39597 12.7118L4.74837 11.2873C3.67262 8.92105 4.46703 6.12387 6.62595 4.67628L8.292 3.55916C9.23343 2.92791 10.5011 3.12034 11.2128 4.00252Z" fill="url(#paint0_linear_314_4146)"/>
<defs>
<linearGradient id="paint0_linear_314_4146" x1="-2.54648" y1="-1.79982" x2="33.9544" y2="1.20312" gradientUnits="userSpaceOnUse">
<stop stop-color="#2D2DFF"/>
<stop offset="1" stop-color="#00D4FF"/>
<stop offset="1" stop-color="#00D4FF"/>
</linearGradient>
</defs>
</svg>
