<svg width="35" height="35" viewBox="0 0 35 35" fill="none" xmlns="http://www.w3.org/2000/svg">
<path d="M13.3701 2.09395C10.9774 1.76481 8.54634 2.31251 6.52592 3.63591C4.5055 4.95932 3.03214 6.96906 2.3779 9.29402C1.72365 11.619 1.9327 14.1022 2.96646 16.285C4.00021 18.4679 5.78885 20.203 8.0021 21.17C7.94224 20.4018 7.99718 19.629 8.1651 18.877C8.3501 18.038 9.4611 13.414 9.4611 13.414C9.23986 12.9181 9.1293 12.3799 9.1371 11.837C9.1371 10.352 9.9941 9.24396 11.0601 9.24396C11.2516 9.24117 11.4415 9.27965 11.6168 9.35679C11.7921 9.43392 11.9487 9.5479 12.076 9.69098C12.2034 9.83405 12.2984 10.0029 12.3547 10.1859C12.4109 10.369 12.4271 10.5621 12.4021 10.752C12.4021 11.652 11.8241 13.014 11.5221 14.292C11.4624 14.5263 11.4586 14.7715 11.511 15.0076C11.5635 15.2437 11.6706 15.4642 11.8239 15.6513C11.9771 15.8384 12.1722 15.9869 12.3933 16.0848C12.6145 16.1827 12.8556 16.2273 13.0971 16.215C14.9951 16.215 16.2671 13.784 16.2671 10.914C16.2671 8.71395 14.8101 7.06595 12.1241 7.06595C11.4815 7.04098 10.8405 7.14688 10.24 7.37721C9.63958 7.60754 9.09221 7.9575 8.63115 8.40584C8.17008 8.85419 7.80495 9.39156 7.55792 9.98533C7.31089 10.5791 7.18711 11.2169 7.1941 11.86C7.16546 12.5733 7.3956 13.2729 7.8421 13.83C7.92553 13.8922 7.98645 13.98 8.01567 14.0799C8.04489 14.1798 8.04083 14.2865 8.0041 14.384C7.9581 14.568 7.8421 15.007 7.7961 15.168C7.78653 15.2226 7.76427 15.2741 7.73112 15.3186C7.69797 15.363 7.65484 15.399 7.60523 15.4237C7.55561 15.4484 7.50088 15.4611 7.44545 15.4608C7.39002 15.4605 7.33544 15.4472 7.2861 15.422C5.9021 14.868 5.2501 13.345 5.2501 11.606C5.2501 8.75896 7.6341 5.35095 12.4041 5.35095C16.2001 5.35095 18.7241 8.12795 18.7241 11.098C18.7241 15.007 16.5471 17.946 13.3301 17.946C12.8493 17.9613 12.3724 17.8552 11.9434 17.6374C11.5145 17.4196 11.1474 17.0972 10.8761 16.7C10.8761 16.7 10.2981 19.016 10.1841 19.454C9.95139 20.2107 9.608 20.9288 9.1651 21.585C10.0881 21.865 11.0471 22.005 12.0111 22.001C13.3247 22.002 14.6256 21.7439 15.8393 21.2415C17.053 20.7391 18.1556 20.0022 19.0842 19.0731C20.0127 18.1439 20.7488 17.0407 21.2504 15.8267C21.7519 14.6126 22.0091 13.3115 22.0071 11.998C22.0059 9.58295 21.1309 7.24995 19.5437 5.42973C17.9566 3.60952 15.7644 2.42502 13.3721 2.09495L13.3701 2.09395Z" fill="url(#paint0_linear_60_286)" fill-opacity="0.8"/>
<defs>
<linearGradient id="paint0_linear_60_286" x1="-4.06849" y1="-2.44393" x2="28.4411" y2="0.229577" gradientUnits="userSpaceOnUse">
<stop stop-color="#2D2DFF"/>
<stop offset="1" stop-color="#00D4FF"/>
<stop offset="1" stop-color="#00D4FF"/>
</linearGradient>
</defs>
</svg>
