<svg width="40" height="40" viewBox="0 0 40 40" fill="none" xmlns="http://www.w3.org/2000/svg">
<circle cx="20" cy="20" r="19.5" stroke="url(#paint0_linear_6_211)"/>
<path d="M26.7505 29H25.2505V25.2178C25.2499 24.6298 25.016 24.066 24.6003 23.6503C24.1845 23.2345 23.6207 23.0006 23.0327 23H16.9682C16.3802 23.0006 15.8165 23.2345 15.4007 23.6503C14.9849 24.066 14.7511 24.6298 14.7505 25.2178V29H13.2505V25.2178C13.2517 24.2321 13.6438 23.2872 14.3407 22.5902C15.0377 21.8933 15.9826 21.5012 16.9682 21.5H23.0327C24.0184 21.5012 24.9633 21.8933 25.6603 22.5902C26.3572 23.2872 26.7493 24.2321 26.7505 25.2178V29Z" fill="url(#paint1_linear_6_211)"/>
<path d="M20.0005 20C19.1105 20 18.2404 19.7361 17.5004 19.2416C16.7604 18.7472 16.1836 18.0444 15.843 17.2221C15.5024 16.3998 15.4133 15.495 15.587 14.6221C15.7606 13.7492 16.1892 12.9474 16.8185 12.3181C17.4478 11.6887 18.2497 11.2601 19.1226 11.0865C19.9955 10.9129 20.9003 11.002 21.7226 11.3426C22.5448 11.6832 23.2476 12.2599 23.7421 13C24.2366 13.74 24.5005 14.61 24.5005 15.5C24.4993 16.6931 24.0248 17.837 23.1812 18.6807C22.3375 19.5244 21.1936 19.9988 20.0005 20ZM20.0005 12.5C19.4071 12.5 18.8271 12.676 18.3338 13.0056C17.8404 13.3353 17.4559 13.8038 17.2289 14.352C17.0018 14.9002 16.9424 15.5034 17.0581 16.0853C17.1739 16.6672 17.4596 17.2018 17.8792 17.6214C18.2987 18.0409 18.8333 18.3266 19.4152 18.4424C19.9972 18.5581 20.6004 18.4987 21.1485 18.2717C21.6967 18.0446 22.1653 17.6601 22.4949 17.1667C22.8245 16.6734 23.0005 16.0934 23.0005 15.5C23.0005 14.7044 22.6844 13.9413 22.1218 13.3787C21.5592 12.8161 20.7961 12.5 20.0005 12.5Z" fill="url(#paint2_linear_6_211)"/>
<defs>
<linearGradient id="paint0_linear_6_211" x1="-12.1429" y1="-8.88889" x2="52.8661" y2="-3.54346" gradientUnits="userSpaceOnUse">
<stop stop-color="#2D2DFF"/>
<stop offset="1" stop-color="#00D4FF"/>
<stop offset="1" stop-color="#00D4FF"/>
</linearGradient>
<linearGradient id="paint1_linear_6_211" x1="9.15227" y1="19.8334" x2="30.7676" y2="23.0326" gradientUnits="userSpaceOnUse">
<stop stop-color="#2D2DFF"/>
<stop offset="1" stop-color="#00D4FF"/>
<stop offset="1" stop-color="#00D4FF"/>
</linearGradient>
<linearGradient id="paint2_linear_6_211" x1="12.7683" y1="9.00003" x2="27.3954" y2="10.2028" gradientUnits="userSpaceOnUse">
<stop stop-color="#2D2DFF"/>
<stop offset="1" stop-color="#00D4FF"/>
<stop offset="1" stop-color="#00D4FF"/>
</linearGradient>
</defs>
</svg>
