<svg width="24" height="24" viewBox="0 0 24 24" fill="none" xmlns="http://www.w3.org/2000/svg">
<path d="M11.45 4V10.9091H12.55V4H11.45ZM11.45 13.8182V20H12.55V13.8182H11.45ZM12 13.2682C11.5004 13.2682 11.0954 12.8632 11.0954 12.3636H9.99545C9.99545 13.4707 10.8929 14.3682 12 14.3682V13.2682ZM12.9045 12.3636C12.9045 12.8632 12.4996 13.2682 12 13.2682V14.3682C13.1071 14.3682 14.0045 13.4707 14.0045 12.3636H12.9045ZM12 11.4591C12.4996 11.4591 12.9045 11.8641 12.9045 12.3636H14.0045C14.0045 11.2566 13.1071 10.3591 12 10.3591V11.4591ZM12 10.3591C10.8929 10.3591 9.99545 11.2566 9.99545 12.3636H11.0954C11.0954 11.8641 11.5004 11.4591 12 11.4591V10.3591ZM17.9954 4V14.5909H19.0954V4H17.9954ZM17.9954 17.5V20H19.0954V17.5H17.9954ZM18.5454 16.95C18.0459 16.95 17.6409 16.545 17.6409 16.0455H16.5409C16.5409 17.1525 17.4384 18.05 18.5454 18.05V16.95ZM19.45 16.0455C19.45 16.545 19.045 16.95 18.5454 16.95V18.05C19.6525 18.05 20.55 17.1525 20.55 16.0455H19.45ZM18.5454 15.1409C19.045 15.1409 19.45 15.5459 19.45 16.0455H20.55C20.55 14.9384 19.6525 14.0409 18.5454 14.0409V15.1409ZM18.5454 14.0409C17.4384 14.0409 16.5409 14.9384 16.5409 16.0455H17.6409C17.6409 15.5459 18.0459 15.1409 18.5454 15.1409V14.0409ZM4.90454 4L4.90455 6.5L6.00455 6.5L6.00454 4L4.90454 4ZM4.90455 9.40909L4.90454 20H6.00454L6.00455 9.40909L4.90455 9.40909ZM5.45455 8.85909C4.95498 8.85909 4.55 8.45411 4.55 7.95455H3.45C3.45 9.06163 4.34747 9.95909 5.45455 9.95909V8.85909ZM6.35909 7.95455C6.35909 8.45411 5.95411 8.85909 5.45455 8.85909V9.95909C6.56163 9.95909 7.45909 9.06163 7.45909 7.95455H6.35909ZM5.45455 7.05C5.95411 7.05 6.35909 7.45498 6.35909 7.95455H7.45909C7.45909 6.84747 6.56163 5.95 5.45455 5.95V7.05ZM5.45455 5.95C4.34747 5.95 3.45 6.84747 3.45 7.95455H4.55C4.55 7.45498 4.95498 7.05 5.45455 7.05V5.95Z" fill="black"/>
</svg>
