<svg width="35" height="35" viewBox="0 0 35 35" fill="none" xmlns="http://www.w3.org/2000/svg">
<path d="M23.6311 13.392C23.6673 13.3415 23.6138 13.2764 23.5559 13.2988C23.1442 13.4584 22.7139 13.5661 22.275 13.6191C22.7637 13.3272 23.1408 12.8827 23.3499 12.3566C23.3712 12.303 23.3127 12.2551 23.2622 12.283C22.808 12.5338 22.3181 12.7145 21.8093 12.8185C21.788 12.8228 21.7661 12.8156 21.7511 12.7998C21.3692 12.3969 20.8666 12.1286 20.3186 12.0359C19.7592 11.9413 19.1841 12.035 18.6836 12.3024C18.1832 12.5698 17.7856 12.9957 17.5533 13.5134C17.3324 14.0056 17.2728 14.5543 17.3817 15.0813C17.3902 15.1222 17.3582 15.1608 17.3165 15.1582C16.3265 15.0967 15.3592 14.8333 14.4742 14.384C13.5914 13.9359 12.8097 13.3124 12.1767 12.5521C12.1486 12.5183 12.0953 12.5227 12.0748 12.5615C11.8779 12.9353 11.7747 13.3519 11.775 13.7754C11.7742 14.1969 11.8776 14.612 12.0761 14.9839C12.2746 15.3557 12.5619 15.6727 12.9125 15.9066C12.5407 15.8965 12.1761 15.8046 11.8445 15.6379C11.8018 15.6164 11.7505 15.647 11.7528 15.6948C11.7786 16.2506 11.9827 16.8085 12.3358 17.2366C12.7116 17.6921 13.2333 18.0039 13.8125 18.1191C13.5895 18.187 13.358 18.2228 13.125 18.2254C12.9982 18.2239 12.8716 18.2145 12.746 18.1974C12.6994 18.191 12.6614 18.2352 12.6777 18.2793C12.8504 18.7465 13.1556 19.1542 13.5569 19.4517C13.986 19.7699 14.5035 19.9463 15.0375 19.9566C14.1358 20.6662 13.0224 21.0534 11.875 21.0566C11.7571 21.057 11.6393 21.0532 11.5217 21.0452C11.4554 21.0407 11.425 21.1289 11.4821 21.1628C12.6 21.8263 13.8779 22.177 15.1813 22.1754C16.1436 22.1854 17.0982 22.0035 17.9894 21.6404C18.8807 21.2773 19.6906 20.7403 20.372 20.0607C21.0534 19.3811 21.5925 18.5725 21.9579 17.6822C22.3232 16.7919 22.5075 15.8377 22.5 14.8754V14.5755C22.5 14.5557 22.5093 14.5372 22.5251 14.5253C22.949 14.2052 23.3218 13.8231 23.6311 13.392Z" fill="url(#paint0_linear_61_361)"/>
<defs>
<linearGradient id="paint0_linear_61_361" x1="7.75121" y1="9.73872" x2="27.5064" y2="11.6848" gradientUnits="userSpaceOnUse">
<stop stop-color="#2D2DFF"/>
<stop offset="1" stop-color="#00D4FF"/>
<stop offset="1" stop-color="#00D4FF"/>
</linearGradient>
</defs>
</svg>
