<svg width="24" height="24" viewBox="0 0 24 24" fill="none" xmlns="http://www.w3.org/2000/svg">
<path d="M18.75 21H17.25V17.2178C17.2494 16.6297 17.0156 16.066 16.5998 15.6502C16.184 15.2344 15.6203 15.0006 15.0322 15H8.96775C8.37975 15.0006 7.816 15.2344 7.40022 15.6502C6.98444 16.066 6.7506 16.6297 6.75 17.2178V21H5.25V17.2178C5.25119 16.2321 5.64326 15.2872 6.34022 14.5902C7.03717 13.8933 7.98211 13.5012 8.96775 13.5H15.0322C16.0179 13.5012 16.9628 13.8933 17.6598 14.5902C18.3567 15.2872 18.7488 16.2321 18.75 17.2178V21Z" fill="black"/>
<path d="M12 12C11.11 12 10.24 11.7361 9.49994 11.2416C8.75991 10.7471 8.18314 10.0443 7.84254 9.22208C7.50195 8.39981 7.41283 7.49501 7.58647 6.6221C7.7601 5.74918 8.18869 4.94736 8.81802 4.31802C9.44736 3.68869 10.2492 3.2601 11.1221 3.08647C11.995 2.91283 12.8998 3.00195 13.7221 3.34254C14.5443 3.68314 15.2471 4.25991 15.7416 4.99994C16.2361 5.73996 16.5 6.60999 16.5 7.5C16.4988 8.69311 16.0243 9.83701 15.1807 10.6807C14.337 11.5243 13.1931 11.9988 12 12ZM12 4.5C11.4067 4.5 10.8266 4.67595 10.3333 5.00559C9.83994 5.33524 9.45543 5.80377 9.22836 6.35195C9.0013 6.90013 8.94189 7.50333 9.05765 8.08527C9.1734 8.66722 9.45912 9.20177 9.87868 9.62132C10.2982 10.0409 10.8328 10.3266 11.4147 10.4424C11.9967 10.5581 12.5999 10.4987 13.1481 10.2716C13.6962 10.0446 14.1648 9.66006 14.4944 9.16671C14.8241 8.67337 15 8.09335 15 7.5C15 6.70435 14.6839 5.94129 14.1213 5.37868C13.5587 4.81607 12.7957 4.5 12 4.5Z" fill="black"/>
</svg>
