<svg width="35" height="35" viewBox="0 0 35 35" fill="none" xmlns="http://www.w3.org/2000/svg">
<path d="M12 4C10.4178 4 8.87103 4.46919 7.55544 5.34824C6.23985 6.22729 5.21447 7.47672 4.60897 8.93853C4.00347 10.4003 3.84504 12.0089 4.15372 13.5607C4.4624 15.1126 5.22433 16.538 6.34315 17.6569C7.46197 18.7757 8.88743 19.5376 10.4393 19.8463C11.9911 20.155 13.5997 19.9965 15.0615 19.391C16.5233 18.7855 17.7727 17.7602 18.6518 16.4446C19.5308 15.129 20 13.5822 20 12C19.9977 9.87897 19.1541 7.84547 17.6543 6.34568C16.1545 4.84589 14.121 4.00229 12 4ZM18.6667 12C18.6671 13.2995 18.2855 14.5704 17.5693 15.6547C16.9945 15.0148 16.6735 14.1868 16.6667 13.3267V12H12.6667C12.4899 12 12.3203 11.9298 12.1953 11.8047C12.0702 11.6797 12 11.5101 12 11.3333V10.6667H14V8H15.9427L16.682 7.26067C17.3108 7.87938 17.8101 8.61709 18.1509 9.43078C18.4916 10.2445 18.6669 11.1178 18.6667 12ZM5.366 12.642L8.05734 15.3333H10.6667C10.8435 15.3333 11.013 15.4036 11.1381 15.5286C11.2631 15.6536 11.3333 15.8232 11.3333 16V18.6327C9.80013 18.4762 8.36827 17.7941 7.28062 16.7022C6.19298 15.6103 5.51652 14.1758 5.366 12.642ZM12.6667 18.6327V16C12.6667 15.4696 12.456 14.9609 12.0809 14.5858C11.7058 14.2107 11.1971 14 10.6667 14H8.60934L5.442 10.8327C5.63279 9.74813 6.08983 8.72793 6.77212 7.86359C7.45441 6.99924 8.34061 6.31781 9.3512 5.88041C10.3618 5.44301 11.4652 5.26334 12.5623 5.35752C13.6595 5.4517 14.7161 5.81678 15.6373 6.42L15.3907 6.66667H12.6667V9.33333H10.6667V11.3333C10.6667 11.8638 10.8774 12.3725 11.2525 12.7475C11.6275 13.1226 12.1362 13.3333 12.6667 13.3333H15.3333C15.3318 14.5964 15.8281 15.8091 16.7147 16.7087C15.6288 17.7994 14.1981 18.4794 12.6667 18.6327Z" fill="url(#paint0_linear_314_4191)" fill-opacity="0.8"/>
<defs>
<linearGradient id="paint0_linear_314_4191" x1="-0.857143" y1="0.444445" x2="25.1464" y2="2.58261" gradientUnits="userSpaceOnUse">
<stop stop-color="#2D2DFF"/>
<stop offset="1" stop-color="#00D4FF"/>
<stop offset="1" stop-color="#00D4FF"/>
</linearGradient>
</defs>
</svg>
