<svg width="24" height="24" viewBox="0 0 24 24" fill="none" xmlns="http://www.w3.org/2000/svg">
<path d="M20.2052 3.79505C19.6954 3.28594 19.0043 3 18.2837 3C17.5632 3 16.8721 3.28594 16.3622 3.79505L3 17.157V21H6.84306L20.2052 7.63803C20.7142 7.12805 21 6.43701 21 5.71654C21 4.99607 20.7142 4.30503 20.2052 3.79505ZM6.22505 19.5H4.50002V17.775L14.4827 7.80003L16.2077 9.52503L6.22505 19.5ZM19.1447 6.57754L17.2645 8.45778L15.5432 6.73279L17.4227 4.85554C17.6515 4.62679 17.9617 4.49828 18.2852 4.49828C18.6087 4.49828 18.919 4.62679 19.1477 4.85554C19.3765 5.08429 19.505 5.39454 19.505 5.71804C19.505 6.04154 19.3765 6.35179 19.1477 6.58054L19.1447 6.57754Z" fill="black"/>
</svg>
