<svg width="36" height="36" viewBox="0 0 36 36" fill="none" xmlns="http://www.w3.org/2000/svg">
<g filter="url(#filter0_b_291_3124)">
<rect width="36" height="36" rx="18" fill="url(#paint0_radial_291_3124)" fill-opacity="0.5"/>
<path d="M17.0281 22.4444C17.2123 22.4444 17.3889 22.3712 17.5191 22.241C17.6494 22.1107 17.7225 21.9341 17.7225 21.7499V17.5833C17.7225 17.3991 17.6494 17.2224 17.5191 17.0922C17.3889 16.962 17.2123 16.8888 17.0281 16.8888C16.8439 16.8888 16.6673 16.962 16.5371 17.0922C16.4068 17.2224 16.3337 17.3991 16.3337 17.5833V21.7499C16.3337 21.9341 16.4068 22.1107 16.5371 22.241C16.6673 22.3712 16.8439 22.4444 17.0281 22.4444ZM23.9725 14.111H21.1948V13.4166C21.1948 12.8641 20.9753 12.3341 20.5846 11.9434C20.1939 11.5527 19.664 11.3333 19.1114 11.3333H17.7225C17.17 11.3333 16.6401 11.5527 16.2494 11.9434C15.8587 12.3341 15.6392 12.8641 15.6392 13.4166V14.111H12.8614C12.6773 14.111 12.5006 14.1842 12.3704 14.3144C12.2402 14.4447 12.167 14.6213 12.167 14.8055C12.167 14.9897 12.2402 15.1663 12.3704 15.2965C12.5006 15.4268 12.6773 15.4999 12.8614 15.4999H13.5559V23.1388C13.5559 23.6913 13.7754 24.2212 14.1661 24.6119C14.5568 25.0026 15.0867 25.2221 15.6392 25.2221H21.1948C21.7473 25.2221 22.2772 25.0026 22.6679 24.6119C23.0586 24.2212 23.2781 23.6913 23.2781 23.1388V15.4999H23.9725C24.1567 15.4999 24.3334 15.4268 24.4636 15.2965C24.5938 15.1663 24.667 14.9897 24.667 14.8055C24.667 14.6213 24.5938 14.4447 24.4636 14.3144C24.3334 14.1842 24.1567 14.111 23.9725 14.111ZM17.0281 13.4166C17.0281 13.2324 17.1013 13.0558 17.2315 12.9255C17.3617 12.7953 17.5384 12.7221 17.7225 12.7221H19.1114C19.2956 12.7221 19.4722 12.7953 19.6025 12.9255C19.7327 13.0558 19.8059 13.2324 19.8059 13.4166V14.111H17.0281V13.4166ZM21.8892 23.1388C21.8892 23.323 21.8161 23.4996 21.6858 23.6299C21.5556 23.7601 21.3789 23.8333 21.1948 23.8333H15.6392C15.455 23.8333 15.2784 23.7601 15.1482 23.6299C15.0179 23.4996 14.9448 23.323 14.9448 23.1388V15.4999H21.8892V23.1388ZM19.8059 22.4444C19.9901 22.4444 20.1667 22.3712 20.2969 22.241C20.4272 22.1107 20.5003 21.9341 20.5003 21.7499V17.5833C20.5003 17.3991 20.4272 17.2224 20.2969 17.0922C20.1667 16.962 19.9901 16.8888 19.8059 16.8888C19.6217 16.8888 19.4451 16.962 19.3148 17.0922C19.1846 17.2224 19.1114 17.3991 19.1114 17.5833V21.7499C19.1114 21.9341 19.1846 22.1107 19.3148 22.241C19.4451 22.3712 19.6217 22.4444 19.8059 22.4444Z" fill="white"/>
</g>
<defs>
<filter id="filter0_b_291_3124" x="-5" y="-5" width="46" height="46" filterUnits="userSpaceOnUse" color-interpolation-filters="sRGB">
<feFlood flood-opacity="0" result="BackgroundImageFix"/>
<feGaussianBlur in="BackgroundImage" stdDeviation="2.5"/>
<feComposite in2="SourceAlpha" operator="in" result="effect1_backgroundBlur_291_3124"/>
<feBlend mode="normal" in="SourceGraphic" in2="effect1_backgroundBlur_291_3124" result="shape"/>
</filter>
<radialGradient id="paint0_radial_291_3124" cx="0" cy="0" r="1" gradientUnits="userSpaceOnUse" gradientTransform="translate(4.32 8.16) rotate(42.2475) scale(35.3395)">
<stop/>
<stop offset="1" stop-opacity="0.8"/>
</radialGradient>
</defs>
</svg>
