<svg width="35" height="35" viewBox="0 0 35 35" fill="none" xmlns="http://www.w3.org/2000/svg">
<path d="M17.5009 14.9687C16.3791 14.9687 15.4697 15.8782 15.4697 17C15.4697 18.1218 16.3791 19.0312 17.5009 19.0312C18.6227 19.0312 19.5322 18.1218 19.5322 17C19.5322 15.8782 18.6227 14.9687 17.5009 14.9687Z" fill="url(#paint0_linear_425_1899)"/>
<path fill-rule="evenodd" clip-rule="evenodd" d="M14.2319 11.4259C16.3869 11.1851 18.6149 11.1851 20.77 11.4259C21.9565 11.5585 22.9135 12.4934 23.0527 13.684C23.3104 15.8872 23.3104 18.1128 23.0527 20.316C22.9135 21.5066 21.9565 22.4415 20.77 22.5741C18.6149 22.8149 16.3869 22.8149 14.2319 22.5741C13.0454 22.4415 12.0884 21.5066 11.9491 20.316C11.6914 18.1128 11.6914 15.8872 11.9491 13.684C12.0884 12.4934 13.0454 11.5585 14.2319 11.4259ZM20.6259 13.25C20.2807 13.25 20.0009 13.5298 20.0009 13.875C20.0009 14.2202 20.2807 14.5 20.6259 14.5C20.9711 14.5 21.2509 14.2202 21.2509 13.875C21.2509 13.5298 20.9711 13.25 20.6259 13.25ZM14.5322 17C14.5322 15.3604 15.8613 14.0312 17.5009 14.0312C19.1405 14.0312 20.4697 15.3604 20.4697 17C20.4697 18.6396 19.1405 19.9687 17.5009 19.9687C15.8613 19.9687 14.5322 18.6396 14.5322 17Z" fill="url(#paint1_linear_425_1899)"/>
<defs>
<linearGradient id="paint0_linear_425_1899" x1="8.26779" y1="8.68761" x2="26.9422" y2="10.2206" gradientUnits="userSpaceOnUse">
<stop stop-color="#2D2DFF"/>
<stop offset="1" stop-color="#00D4FF"/>
<stop offset="1" stop-color="#00D4FF"/>
</linearGradient>
<linearGradient id="paint1_linear_425_1899" x1="8.26779" y1="8.68761" x2="26.9422" y2="10.2206" gradientUnits="userSpaceOnUse">
<stop stop-color="#2D2DFF"/>
<stop offset="1" stop-color="#00D4FF"/>
<stop offset="1" stop-color="#00D4FF"/>
</linearGradient>
</defs>
</svg>
