<svg width="150" height="150" viewBox="0 0 150 150" fill="none" xmlns="http://www.w3.org/2000/svg">
<rect width="150" height="150" fill="white" fill-opacity="0.7"/>
<path d="M87.8799 86.96H62.1199C60.5559 86.96 59.3599 85.764 59.3599 84.2V65.8C59.3599 64.236 60.5559 63.04 62.1199 63.04H87.8799C89.4439 63.04 90.6399 64.236 90.6399 65.8V84.2C90.6399 85.764 89.4439 86.96 87.8799 86.96ZM62.1199 64.88C61.5679 64.88 61.1999 65.248 61.1999 65.8V84.2C61.1999 84.752 61.5679 85.12 62.1199 85.12H87.8799C88.4319 85.12 88.7999 84.752 88.7999 84.2V65.8C88.7999 65.248 88.4319 64.88 87.8799 64.88H62.1199Z" fill="black"/>
<path d="M79.5999 74.08C77.5759 74.08 75.9199 72.424 75.9199 70.4C75.9199 68.376 77.5759 66.72 79.5999 66.72C81.6239 66.72 83.2799 68.376 83.2799 70.4C83.2799 72.424 81.6239 74.08 79.5999 74.08ZM79.5999 68.56C78.5879 68.56 77.7599 69.388 77.7599 70.4C77.7599 71.412 78.5879 72.24 79.5999 72.24C80.6119 72.24 81.4399 71.412 81.4399 70.4C81.4399 69.388 80.6119 68.56 79.5999 68.56ZM82.9751 85.12L69.4799 72.608L61.1999 80.2576V77.875L69.4799 70.032L85.4031 85.12H82.9751Z" fill="black"/>
<path d="M88.7999 81.7084L84.1999 78.036L80.7912 80.75L79.459 79.4878L84.1999 75.644L88.7999 79.474V81.7084Z" fill="black"/>
</svg>
