<svg width="30" height="30" viewBox="0 0 30 30" fill="none" xmlns="http://www.w3.org/2000/svg">
<path d="M15.0002 26.3822L14.3065 25.7876C13.3502 24.9869 5 17.7753 5 12.5002C5 9.848 6.05359 7.3044 7.929 5.429C9.8044 3.55359 12.348 2.5 15.0002 2.5C17.6524 2.5 20.196 3.55359 22.0715 5.429C23.9469 7.3044 25.0004 9.848 25.0004 12.5002C25.0004 17.7753 16.6502 24.9869 15.6979 25.7916L15.0002 26.3822ZM15.0002 4.66237C12.9222 4.66473 10.93 5.49126 9.46063 6.96063C7.99126 8.43 7.16473 10.4222 7.16237 12.5002C7.16237 15.8141 12.2997 21.1081 15.0002 23.5311C17.7007 21.1071 22.8381 15.8102 22.8381 12.5002C22.8357 10.4222 22.0092 8.43 20.5398 6.96063C19.0704 5.49126 17.0782 4.66473 15.0002 4.66237Z" fill="url(#paint0_linear_314_4142)"/>
<path d="M15.0004 16.465C14.2164 16.465 13.45 16.2325 12.7981 15.797C12.1462 15.3614 11.6381 14.7423 11.3381 14.018C11.0381 13.2936 10.9596 12.4966 11.1125 11.7277C11.2655 10.9587 11.643 10.2524 12.1974 9.69802C12.7518 9.14364 13.4581 8.76611 14.2271 8.61316C14.996 8.4602 15.793 8.5387 16.5174 8.83873C17.2417 9.13876 17.8608 9.64684 18.2964 10.2987C18.7319 10.9506 18.9644 11.717 18.9644 12.501C18.9644 13.5523 18.5468 14.5606 17.8034 15.304C17.06 16.0474 16.0517 16.465 15.0004 16.465ZM15.0004 10.519C14.6084 10.519 14.2252 10.6352 13.8993 10.853C13.5733 11.0708 13.3193 11.3804 13.1693 11.7425C13.0192 12.1047 12.98 12.5032 13.0565 12.8877C13.1329 13.2721 13.3217 13.6253 13.5989 13.9025C13.8761 14.1797 14.2293 14.3685 14.6137 14.4449C14.9982 14.5214 15.3967 14.4822 15.7589 14.3321C16.121 14.1821 16.4306 13.9281 16.6484 13.6022C16.8662 13.2762 16.9824 12.893 16.9824 12.501C16.9824 11.9753 16.7736 11.4712 16.4019 11.0995C16.0302 10.7278 15.5261 10.519 15.0004 10.519Z" fill="url(#paint1_linear_314_4142)"/>
<defs>
<linearGradient id="paint0_linear_314_4142" x1="-1.07156" y1="-2.80716" x2="31.499" y2="-0.564313" gradientUnits="userSpaceOnUse">
<stop stop-color="#2D2DFF"/>
<stop offset="1" stop-color="#00D4FF"/>
<stop offset="1" stop-color="#00D4FF"/>
</linearGradient>
<linearGradient id="paint1_linear_314_4142" x1="-1.07156" y1="-2.80716" x2="31.499" y2="-0.564313" gradientUnits="userSpaceOnUse">
<stop stop-color="#2D2DFF"/>
<stop offset="1" stop-color="#00D4FF"/>
<stop offset="1" stop-color="#00D4FF"/>
</linearGradient>
</defs>
</svg>
