<svg width="24" height="24" viewBox="0 0 24 24" fill="none" xmlns="http://www.w3.org/2000/svg">
<path d="M20.0002 19.0586L15.8311 14.8895C16.9141 13.565 17.4466 11.8749 17.3184 10.1688C17.1902 8.46274 16.4112 6.8712 15.1424 5.72339C13.8737 4.57558 12.2124 3.95932 10.502 4.00209C8.79165 4.04485 7.16317 4.74336 5.95339 5.95314C4.74361 7.16292 4.04509 8.79141 4.00233 10.5018C3.95957 12.2121 4.57582 13.8735 5.72363 15.1422C6.87144 16.4109 8.46299 17.19 10.1691 17.3181C11.8751 17.4463 13.5652 16.9139 14.8897 15.8309L19.0588 20L20.0002 19.0586ZM10.6793 16.0053C9.62591 16.0053 8.59614 15.6929 7.72025 15.1077C6.84435 14.5224 6.16168 13.6906 5.75855 12.7174C5.35542 11.7441 5.24994 10.6732 5.45545 9.64C5.66097 8.60681 6.16824 7.65777 6.91313 6.91288C7.65802 6.168 8.60706 5.66072 9.64025 5.45521C10.6734 5.2497 11.7444 5.35517 12.7176 5.7583C13.6908 6.16143 14.5227 6.84411 15.1079 7.72C15.6932 8.5959 16.0056 9.62567 16.0056 10.6791C16.004 12.0912 15.4423 13.445 14.4438 14.4436C13.4453 15.4421 12.0915 16.0037 10.6793 16.0053Z" fill="url(#paint0_linear_6_199)"/>
<defs>
<linearGradient id="paint0_linear_6_199" x1="-0.856899" y1="0.444445" x2="25.1467" y2="2.58261" gradientUnits="userSpaceOnUse">
<stop stop-color="#2D2DFF"/>
<stop offset="1" stop-color="#00D4FF"/>
<stop offset="1" stop-color="#00D4FF"/>
</linearGradient>
</defs>
</svg>
